<?xml version="1.0" encoding="UTF-8"?>
<svg width="205px" height="55px" viewBox="0 0 205 55" version="1.1" xmlns="http://www.w3.org/2000/svg" xmlns:xlink="http://www.w3.org/1999/xlink">
    <!-- Generator: Sketch 52.6 (67491) - http://www.bohemiancoding.com/sketch -->
    <title>Group 35</title>
    <desc>Created with Sketch.</desc>
    <defs>
        <polygon id="path-1" points="0.000176724138 0.489677419 65.7232945 0.489677419 65.7232945 54.4084247 0.000176724138 54.4084247"></polygon>
    </defs>
    <g id="Stop-Gap-Header" stroke="none" stroke-width="1" fill="none" fill-rule="evenodd">
        <g id="StopGap-Header" transform="translate(-121.000000, -25.000000)">
            <g id="Group-35" transform="translate(121.000000, 25.000000)">
                <polygon id="Fill-1" fill="#FFC72C" points="78.5551164 28.9552527 76.8597428 31.4332097 76.8597428 37.7936935 72.7550302 37.7936935 72.7550302 16.4738011 76.8597428 16.4738011 76.8597428 25.1330484 82.5702888 16.4738011 86.9724871 16.4738011 80.9049583 25.4612742 87.5969124 37.7936935 82.8978175 37.7936935"></polygon>
                <polygon id="Fill-2" fill="#FFC72C" points="103.094559 16.5332957 103.094559 37.8531882 98.4549612 37.8531882 92.9223175 22.2663065 92.9223175 37.7940484 89.1156796 37.7940484 89.1156796 16.4735645 93.9337687 16.4735645 99.287921 31.5530269 99.287921 16.5332957"></polygon>
                <g id="Group-34" transform="translate(0.000000, 0.101780)">
                    <path d="M115.678142,27.0319086 L115.648688,25.9271774 C115.529694,21.089543 114.905269,19.4773925 112.584881,19.4773925 C110.265082,19.4773925 109.640068,21.089543 109.521662,25.9271774 L109.491619,27.0319086 L109.521662,28.1366398 C109.640068,32.9742742 110.265082,34.5864247 112.584881,34.5864247 C114.905269,34.5864247 115.529694,32.9742742 115.648688,28.1366398 L115.678142,27.0319086 Z M119.783444,27.0319086 L119.753401,28.1366398 C119.574909,35.3031989 118.08807,38.1099731 112.584881,38.1099731 C107.08228,38.1099731 105.624895,35.3031989 105.416361,28.1366398 L105.386907,27.0319086 L105.416361,25.9271774 C105.624895,18.7606183 107.08228,15.9538441 112.584881,15.9538441 C118.08807,15.9538441 119.574909,18.7606183 119.753401,25.9271774 L119.783444,27.0319086 Z" id="Fill-3" fill="#FFC72C"></path>
                    <polygon id="Fill-5" fill="#FFC72C" points="142.8483 16.3717258 138.743588 37.6922097 134.01445 37.6922097 131.665197 22.1047366 129.314766 37.6922097 124.586217 37.6922097 120.481504 16.3717258 124.586217 16.3717258 127.202912 32.3169946 129.612251 16.3717258 133.716964 16.3717258 136.126303 32.3169946 138.743588 16.3717258"></polygon>
                    <polygon id="Fill-7" fill="#FFC72C" points="165.099931 16.3717258 165.099931 37.6922097 160.995218 37.6922097 160.995218 28.3759194 155.790103 28.3759194 155.790103 37.6922097 151.68598 37.6922097 151.68598 16.3717258 155.790103 16.3717258 155.790103 24.8517796 160.995218 24.8517796 160.995218 16.3717258"></polygon>
                    <path d="M177.683455,27.0319086 L177.653412,25.9271774 C177.534418,21.089543 176.909993,19.4773925 174.589605,19.4773925 C172.270395,19.4773925 171.645381,21.089543 171.526386,25.9271774 L171.496343,27.0319086 L171.526386,28.1366398 C171.645381,32.9742742 172.270395,34.5864247 174.589605,34.5864247 C176.909993,34.5864247 177.534418,32.9742742 177.653412,28.1366398 L177.683455,27.0319086 Z M181.788168,27.0319086 L181.758125,28.1366398 C181.579634,35.3031989 180.092795,38.1099731 174.589605,38.1099731 C169.087004,38.1099731 167.630208,35.3031989 167.421674,28.1366398 L167.391631,27.0319086 L167.421674,25.9271774 C167.630208,18.7606183 169.087004,15.9538441 174.589605,15.9538441 C180.092795,15.9538441 181.579634,18.7606183 181.758125,25.9271774 L181.788168,27.0319086 Z" id="Fill-9" fill="#FFC72C"></path>
                    <polygon id="Fill-11" fill="#FFC72C" points="204.852494 16.3717258 200.747782 37.6922097 196.018644 37.6922097 193.669391 22.1047366 191.31896 37.6922097 186.590411 37.6922097 182.485698 16.3717258 186.590411 16.3717258 189.207106 32.3169946 191.616445 16.3717258 195.721158 16.3717258 198.130497 32.3169946 200.747782 16.3717258"></polygon>
                    <path d="M63.5450517,52.0993118 C63.8613879,52.0993118 64.1441466,52.0774301 64.1441466,51.6959785 C64.1441466,51.3896344 63.8666897,51.3328602 63.6063161,51.3328602 L63.0967615,51.3328602 L63.0967615,52.0993118 L63.5450517,52.0993118 Z M63.0967615,53.4914624 L62.7232845,53.4914624 L62.7232845,51.0140968 L63.6634569,51.0140968 C64.2466466,51.0140968 64.5341178,51.2305484 64.5341178,51.7184516 C64.5341178,52.1614086 64.25725,52.3559785 63.8943764,52.4009247 L64.5971494,53.4914624 L64.1783132,53.4914624 L63.5267902,52.4180753 L63.0967615,52.4180753 L63.0967615,53.4914624 Z M63.5497644,54.0432366 C64.5182126,54.0432366 65.28225,53.2815161 65.28225,52.2477527 C65.28225,51.2305484 64.5182126,50.462914 63.5497644,50.462914 C62.5713017,50.462914 61.8066753,51.2305484 61.8066753,52.2477527 C61.8066753,53.2815161 62.5713017,54.0432366 63.5497644,54.0432366 Z M61.3754684,52.2477527 C61.3754684,51.0140968 62.3727816,50.1057097 63.5497644,50.1057097 C64.7161437,50.1057097 65.7116897,51.0140968 65.7116897,52.2477527 C65.7116897,53.4914624 64.7161437,54.4004409 63.5497644,54.4004409 C62.3727816,54.4004409 61.3754684,53.4914624 61.3754684,52.2477527 Z" id="Fill-13" fill="#FFFFFF"></path>
                    <g id="Group-17">
                        <mask id="mask-2" fill="white">
                            <use xlink:href="#path-1"></use>
                        </mask>
                        <g id="Clip-16"></g>
                        <path d="M64.9292141,24.3914355 L59.8749037,15.5151452 L58.1883664,12.5143925 L53.0121164,3.58428495 C51.9912399,1.73853226 50.0290129,0.4895 47.7763693,0.4895 L17.8929066,0.4895 C15.6532227,0.4895 13.6992428,1.73557527 12.6736537,3.56654301 L7.54865374,12.5143925 L5.84974569,15.5151452 L0.793079023,24.3914355 C0.288237069,25.2720269 0.000176724138,26.293371 0.000176724138,27.3827258 C0.000176724138,28.5158441 0.311211207,29.5738548 0.85375431,30.4786935 L5.88509052,39.3875108 L7.52921408,42.3823495 L12.6553922,51.3313817 C13.6803922,53.1617581 15.633783,54.4084247 17.8758233,54.4084247 L47.7586968,54.4084247 C50.0101624,54.4084247 51.9718003,53.1599839 52.9932658,51.3130484 L58.1689267,42.3823495 L59.8377917,39.3875108 L64.8685388,30.4786935 C65.4104928,29.5738548 65.7232945,28.5158441 65.7232945,27.3827258 C65.7232945,26.293371 65.4346451,25.2720269 64.9292141,24.3914355" id="Fill-15" fill="#FFFFFF" mask="url(#mask-2)"></path>
                    </g>
                    <polygon id="Fill-18" fill="#001489" points="11.8446408 15.509172 17.0038075 15.509172 18.7415948 28.9551935 18.7415948 15.509172 22.1906609 15.509172 22.1906609 39.3874516 17.0314943 39.3874516 15.2931178 22.8632043 15.2931178 39.3874516 11.8446408 39.3874516"></polygon>
                    <path d="M27.9942816,30.4636129 L28.9362213,18.389043 L29.8545977,30.4636129 L27.9942816,30.4636129 Z M32.1125431,15.5089355 L25.7799282,15.5089355 L23.6739655,39.3878065 L27.0806178,39.3878065 L27.6744109,33.841086 L30.1573851,33.841086 L30.7841667,39.3878065 L34.2597414,39.3878065 L32.1125431,15.5089355 Z" id="Fill-20" fill="#001489"></path>
                    <path d="M49.0496078,30.4636129 L49.9915474,18.389043 L50.9105129,30.4636129 L49.0496078,30.4636129 Z M53.1666911,15.5089355 L46.8346652,15.5089355 L44.7292917,39.3878065 L48.1347658,39.3878065 L48.7285589,33.841086 L51.210944,33.841086 L51.8377256,39.3878065 L55.3150675,39.3878065 L53.1666911,15.5089355 Z" id="Fill-22" fill="#001489"></path>
                    <path d="M41.3274109,26.361086 C41.3274109,26.9246882 40.8714626,27.3830215 40.3094799,27.3830215 L39.278,27.3830215 L39.278,18.3896344 L40.3094799,18.3896344 C40.8714626,18.3896344 41.3274109,18.8456022 41.3274109,19.4103871 L41.3274109,26.361086 Z M41.7933736,15.5089355 L35.829523,15.5089355 L35.829523,39.3878065 L39.278,39.3878065 L39.278,30.4636129 L41.7933736,30.4636129 C43.3402989,30.4636129 44.593273,29.2057097 44.593273,27.6526989 L44.593273,18.3198495 C44.593273,16.7674301 43.3402989,15.5089355 41.7933736,15.5089355 Z" id="Fill-24" fill="#001489"></path>
                    <path d="M0.793079023,24.3914355 C0.288237069,25.2720269 0.000176724138,26.293371 0.000176724138,27.3827258 C0.000176724138,28.5158441 0.311211207,29.5738548 0.85375431,30.4786935 L5.88509052,39.3875108 L8.94713075,39.3875108 L8.94713075,15.5145538 L5.84974569,15.5151452 L0.793079023,24.3914355 Z" id="Fill-26" fill="#FFC72C"></path>
                    <path d="M59.8748448,15.5149677 L56.7751034,15.5143763 L56.7751034,39.3879247 L59.8383218,39.3879247 L64.869069,30.4785161 C65.4104339,29.5736774 65.7232356,28.5156667 65.7232356,27.3825484 C65.7232356,26.2931935 65.4345862,25.2724409 64.9291552,24.3912581 L59.8748448,15.5149677 Z" id="Fill-28" fill="#FFC72C"></path>
                    <path d="M58.1881307,12.514629 L53.0118807,3.58452151 C51.9910043,1.73876882 50.0287773,0.489736559 47.7761336,0.489736559 L17.8932601,0.489736559 C15.6529871,0.489736559 13.6995963,1.73581183 12.6740072,3.56618817 L7.54900718,12.514629 L58.1881307,12.514629 Z" id="Fill-30" fill="#FFC72C"></path>
                    <path d="M7.52921408,42.3822903 L12.6553922,51.3313226 C13.6803922,53.1622903 15.633783,54.4083656 17.8752342,54.4083656 L47.7586968,54.4083656 C50.0101624,54.4083656 51.9718003,53.1599247 52.9932658,51.3135806 L58.1689267,42.3822903 L7.52921408,42.3822903 Z" id="Fill-32" fill="#FFC72C"></path>
                </g>
            </g>
        </g>
    </g>
</svg>